<?xml version="1.0" encoding="UTF-8"?>
<svg xmlns="http://www.w3.org/2000/svg" viewBox="0 0 512 512" width="512" height="512"><g id="Outline"><path d="M280,200a24.027,24.027,0,0,0,24-24H288a8,8,0,0,1-16,0H256A24.027,24.027,0,0,0,280,200Z"/><path d="M16.507,225.131l9.6,31.52a8,8,0,0,0,7.648,5.671c.636,0,27.062-6.449,27.062-6.449L48.106,414.236a37.64,37.64,0,0,0,10.054,28.82A40.651,40.651,0,0,0,88,456c.268,0,.648,0,1.1-.035.463.032.86.035,1.136.035a36.291,36.291,0,0,0,27.617-12.7L192,370.979v4.678c-11.983,23.579-9.255,52.9,8,75.166V496h16V448a8,8,0,0,0-1.875-5.146c-16.577-19.729-17.9-47.273-3.635-66.854h139.7c14.036,19.375,12.439,46.911-4.318,66.854A8,8,0,0,0,344,448v48h16V450.826a74.728,74.728,0,0,0,13.539-27.707l19.413,48.28A38.755,38.755,0,0,0,428.96,496H448V416h16v80h16V412.363a19.172,19.172,0,0,0,8-15.563V355.2a19.172,19.172,0,0,0-8-15.563V283.874c.04-.088.092-.167.128-.257l15.279-37.428a8,8,0,0,0-4.775-10.578L433.91,215.852a8,8,0,0,0-10.038,4.531l-15.279,37.428a8,8,0,0,0,4.775,10.578L432,274.879V336h-4.165l-9.077-26.3a56.1,56.1,0,0,0-48.192-37.492A71.078,71.078,0,0,0,376,244.88V112a96.127,96.127,0,0,0-88-95.664V16H272v.333A95.944,95.944,0,0,0,184,112v48.051a39.054,39.054,0,0,0-50.343,11.929l-.03-.1a8,8,0,0,0-10.013-5.32L55.1,187.7a8,8,0,0,0-5.3,9.969l1.921,6.328L21.367,215.3A8,8,0,0,0,16.507,225.131ZM69.92,432.207a21.809,21.809,0,0,1-5.865-16.687l12.5-155.792a23.378,23.378,0,0,0,17.6,1.523l17.841-5.5V417.2c0,12.28-10.066,22.238-22.939,22.72H88.88v.006a7.959,7.959,0,0,0-1.046.073A24.6,24.6,0,0,1,69.92,432.207Zm77.76-197.784,2.8-.678a38.885,38.885,0,0,0,33.524-.8V244.88a71.129,71.129,0,0,0,5.393,27.227,72.526,72.526,0,0,0-53.435,28.244L128,310.79V250.812l4.224-1.3A23.837,23.837,0,0,0,147.68,234.423ZM432,479.764c-.512.064-1.038.109-1.571.141A23.9,23.9,0,0,1,408,456v-1.84a24.313,24.313,0,0,1,1.753-8.963L421.416,416H432ZM424,400a8.009,8.009,0,0,1-8-8V360a8.009,8.009,0,0,1,8-8h44.8a3.2,3.2,0,0,1,3.2,3.2v41.6a3.2,3.2,0,0,1-3.2,3.2H424Zm11.816-166.542,41.591,14.489-9.223,22.595-41.591-14.489ZM464,286.027V304H448V280.453ZM448,320h16v16H448Zm-44.362-5.07,8.381,24.288A24.007,24.007,0,0,0,400,360v32a23.925,23.925,0,0,0,7.01,16.934l-9.164,22.909-1.768,4.444L368,366.452V336H352v24H208V336H192v12.628l-64,62.429V337.182l20.677-27.125A56.372,56.372,0,0,1,193.2,288h5.292a70.993,70.993,0,0,0,30.52,23.421A8,8,0,0,0,240,304V288h8a8,8,0,0,0,8-8V244.3a79.708,79.708,0,0,0,48,0V280a8,8,0,0,0,8,8h8v16a8,8,0,0,0,10.954,7.435A70.835,70.835,0,0,0,361.552,288h4.288A40.065,40.065,0,0,1,403.638,314.93ZM279.991,64.494A62.214,62.214,0,0,1,320,122.56v6.14a12,12,0,1,0,0,22.6v66.6a62.391,62.391,0,0,1-11.578,7.425,63.849,63.849,0,0,1-56.883-.019A62.254,62.254,0,0,1,240,217.9V151.3a12,12,0,1,0,0-22.6v-6.14A62.041,62.041,0,0,1,279.991,64.494ZM360,112V244.88a54.939,54.939,0,0,1-9.289,30.67,8.1,8.1,0,0,0-.43.723A55.336,55.336,0,0,1,336,290.7V122.56a78.2,78.2,0,0,0-48-72.087V32.4A80.11,80.11,0,0,1,360,112ZM223.417,55.417A79.377,79.377,0,0,1,272,32.393V50.464a78.012,78.012,0,0,0-48,72.1V290.671a56.241,56.241,0,0,1-24-45.791V218a41.417,41.417,0,0,0,4.088-33.426A42.171,42.171,0,0,0,200,175.281V112A79.483,79.483,0,0,1,223.417,55.417ZM158.781,172.455a22.967,22.967,0,0,1,6.77-1.024,23.392,23.392,0,0,1,11,2.775,25.071,25.071,0,0,1,12.233,15.016c4,13.157-3,27.021-15.595,30.907a23.108,23.108,0,0,1-17.765-1.752,25.069,25.069,0,0,1-12.232-15.017C139.191,190.205,146.187,176.341,158.781,172.455Zm-38.129,11.763,12,39.532a8.294,8.294,0,0,1-5.149,10.47L89.442,245.962a7.57,7.57,0,0,1-5.825-.585,8.568,8.568,0,0,1-4.167-5.138l-12.025-39.6ZM56.381,219.332l5.835,19.218c-.031.168-.051.34-.072.512L39.2,244.733l-5.2-17.064Z"/><path d="M128,104a16,16,0,1,0,15.952,16.951l7.939-47.636A8,8,0,0,0,144,64H96a8,8,0,0,0-7.891,6.685L82.52,104.218a15.992,15.992,0,1,0,13.432,16.733L102.777,80h31.779l-4.036,24.218A15.985,15.985,0,0,0,128,104Z"/></g></svg>