<svg xmlns="http://www.w3.org/2000/svg" viewBox="0 0 512 512">
  <path d="M280 200a24.027 24.027 0 0024-24h-16a8 8 0 01-16 0h-16a24.027 24.027 0 0024 24z"/>
  <path d="M16.507 225.131l9.6 31.52a8 8 0 007.648 5.671c.636 0 27.062-6.449 27.062-6.449L48.106 414.236a37.64 37.64 0 0010.054 28.82A40.651 40.651 0 0088 456c.268 0 .648 0 1.1-.035.463.032.86.035 1.136.035a36.291 36.291 0 0027.617-12.7L192 370.979v4.678c-11.983 23.579-9.255 52.9 8 75.166V496h16v-48a8 8 0 00-1.875-5.146c-16.577-19.729-17.9-47.273-3.635-66.854h139.7c14.036 19.375 12.439 46.911-4.318 66.854A8 8 0 00344 448v48h16v-45.174a74.728 74.728 0 0013.539-27.707l19.413 48.28A38.755 38.755 0 00428.96 496H448v-80h16v80h16v-83.637a19.172 19.172 0 008-15.563v-41.6a19.172 19.172 0 00-8-15.563v-55.763c.04-.088.092-.167.128-.257l15.279-37.428a8 8 0 00-4.775-10.578l-56.722-19.759a8 8 0 00-10.038 4.531l-15.279 37.428a8 8 0 004.775 10.578l18.632 6.49V336h-4.165l-9.077-26.3a56.1 56.1 0 00-48.192-37.492A71.078 71.078 0 00376 244.88V112a96.127 96.127 0 00-88-95.664V16h-16v.333A95.944 95.944 0 00184 112v48.051a39.054 39.054 0 00-50.343 11.929l-.03-.1a8 8 0 00-10.013-5.32L55.1 187.7a8 8 0 00-5.3 9.969l1.921 6.328L21.367 215.3a8 8 0 00-4.86 9.831zM69.92 432.207a21.809 21.809 0 01-5.865-16.687l12.5-155.792a23.378 23.378 0 0017.6 1.523l17.841-5.5V417.2c0 12.28-10.066 22.238-22.939 22.72h-.177v.006a7.959 7.959 0 00-1.046.073 24.6 24.6 0 01-17.914-7.792zm77.76-197.784l2.8-.678a38.885 38.885 0 0033.524-.8v11.935a71.129 71.129 0 005.393 27.227 72.526 72.526 0 00-53.435 28.244L128 310.79v-59.978l4.224-1.3a23.837 23.837 0 0015.456-15.089zM432 479.764c-.512.064-1.038.109-1.571.141A23.9 23.9 0 01408 456v-1.84a24.313 24.313 0 011.753-8.963L421.416 416H432zM424 400a8.009 8.009 0 01-8-8v-32a8.009 8.009 0 018-8h44.8a3.2 3.2 0 013.2 3.2v41.6a3.2 3.2 0 01-3.2 3.2H424zm11.816-166.542l41.591 14.489-9.223 22.595-41.591-14.489zM464 286.027V304h-16v-23.547zM448 320h16v16h-16zm-44.362-5.07l8.381 24.288A24.007 24.007 0 00400 360v32a23.925 23.925 0 007.01 16.934l-9.164 22.909-1.768 4.444L368 366.452V336h-16v24H208v-24h-16v12.628l-64 62.429v-73.875l20.677-27.125A56.372 56.372 0 01193.2 288h5.292a70.993 70.993 0 0030.52 23.421A8 8 0 00240 304v-16h8a8 8 0 008-8v-35.7a79.708 79.708 0 0048 0V280a8 8 0 008 8h8v16a8 8 0 0010.954 7.435A70.835 70.835 0 00361.552 288h4.288a40.065 40.065 0 0137.798 26.93zM279.991 64.494A62.214 62.214 0 01320 122.56v6.14a12 12 0 100 22.6v66.6a62.391 62.391 0 01-11.578 7.425 63.849 63.849 0 01-56.883-.019A62.254 62.254 0 01240 217.9v-66.6a12 12 0 100-22.6v-6.14a62.041 62.041 0 0139.991-58.066zM360 112v132.88a54.939 54.939 0 01-9.289 30.67 8.1 8.1 0 00-.43.723A55.336 55.336 0 01336 290.7V122.56a78.2 78.2 0 00-48-72.087V32.4a80.11 80.11 0 0172 79.6zM223.417 55.417A79.377 79.377 0 01272 32.393v18.071a78.012 78.012 0 00-48 72.1v168.107a56.241 56.241 0 01-24-45.791V218a41.417 41.417 0 004.088-33.426 42.171 42.171 0 00-4.088-9.293V112a79.483 79.483 0 0123.417-56.583zm-64.636 117.038a22.967 22.967 0 016.77-1.024 23.392 23.392 0 0111 2.775 25.071 25.071 0 0112.233 15.016c4 13.157-3 27.021-15.595 30.907a23.108 23.108 0 01-17.765-1.752 25.069 25.069 0 01-12.232-15.017c-4.001-13.155 2.995-27.019 15.589-30.905zm-38.129 11.763l12 39.532a8.294 8.294 0 01-5.149 10.47l-38.061 11.742a7.57 7.57 0 01-5.825-.585 8.568 8.568 0 01-4.167-5.138l-12.025-39.6zm-64.271 35.114l5.835 19.218c-.031.168-.051.34-.072.512L39.2 244.733 34 227.669z"/>
  <path d="M128 104a16 16 0 1015.952 16.951l7.939-47.636A8 8 0 00144 64H96a8 8 0 00-7.891 6.685l-5.589 33.533a15.992 15.992 0 1013.432 16.733L102.777 80h31.779l-4.036 24.218A15.985 15.985 0 00128 104z"/>
</svg>
